/* XPM */ 
static const char * connected_xpm[] = {
"16 16 112 2",
"  	c None",
"! 	c black",
"# 	c #029A02",
"$ 	c #089D08",
"% 	c #0FA00E",
"& 	c #52BA4C",
"' 	c #6DC566",
"( 	c #51BA4C",
") 	c #1CA61A",
"* 	c #039A03",
"+ 	c #43B53F",
", 	c #91D588",
"- 	c #79CD6F",
". 	c #91D689",
"0 	c #2AAC24",
"1 	c #10A00F",
"2 	c #8DD585",
"3 	c #72CC66",
"4 	c #90D787",
"5 	c #2AAC26",
"6 	c #099D08",
"7 	c #6EC967",
"8 	c #93DA89",
"9 	c #68CB5A",
": 	c #9DDE94",
"; 	c #5DC257",
"< 	c #2FAE2B",
"= 	c #0A9E09",
"> 	c #32AF2F",
"? 	c #A0E097",
"@ 	c #78D46B",
"A 	c #96DD8C",
"B 	c #85D47D",
"C 	c #30AF2C",
"D 	c #009700",
"E 	c #92DA89",
"F 	c #93DE87",
"G 	c #8CDD80",
"H 	c #A1E298",
"I 	c #40B63B",
"J 	c #009500",
"K 	c #24A521",
"L 	c #49B644",
"M 	c #13A011",
"N 	c #009900",
"O 	c #5EC458",
"P 	c #A6E59C",
"Q 	c #88DE7A",
"R 	c #AEEAA5",
"S 	c #69C962",
"T 	c #36B231",
"U 	c #009600",
"V 	c #86D07E",
"W 	c #8FD585",
"X 	c #8ED686",
"Y 	c #079C07",
"Z 	c #28AB25",
"[ 	c #ACE8A3",
"] 	c #94E487",
"^ 	c #ACEBA1",
"_ 	c #94DF8C",
"` 	c #37B232",
"a 	c #92D689",
"b 	c #7BCF70",
"c 	c #80D375",
"d 	c #47B942",
"e 	c #15A313",
"f 	c #89D882",
"g 	c #A8EA9D",
"h 	c #9FEA92",
"i 	c #B1EDA7",
"j 	c #48BB43",
"k 	c #009800",
"l 	c #38B134",
"m 	c #99DB90",
"n 	c #85D679",
"o 	c #8BDA7F",
"p 	c #A8E69F",
"q 	c #80D479",
"r 	c #B3EDA9",
"s 	c #9EEB91",
"t 	c #BCF3B2",
"u 	c #74D06C",
"v 	c #3CB537",
"w 	c #3FB53B",
"x 	c #A1E098",
"y 	c #8FDD84",
"z 	c #87DE7A",
"{ 	c #B2ECA8",
"| 	c #A5EC99",
"} 	c #B7F3AC",
"~ 	c #9FE697",
" !	c #3DB538",
"!!	c #0EA00D",
"#!	c #4BBB46",
"$!	c #A9E6A0",
"%!	c #9AE58E",
"&!	c #91E684",
"'!	c #A9EF9D",
"(!	c #B9F3AF",
")!	c #50BE4A",
"*!	c #A9E8A0",
"+!	c #ACEEA0",
",!	c #BFF5B5",
"-!	c #7AD372",
".!	c #43B83D",
"0!	c #4ABB44",
"1!	c #B2EEA9",
"2!	c #99E290",
"3!	c #44B83E",
"4!	c #3EB539",
"5!	c #45B83F",
"                        # $ %   ",
"                      # & ' ( ) ",
"                    * + , - . 0 ",
"                    1 2 3 3 4 5 ",
"                  6 7 8 9 : ; < ",
"                = > ? @ A B C   ",
"    D           % E F G H I     ",
"J K L M N     1 O P Q R S T     ",
"U V W X > Y   Z [ ] ^ _ `       ",
"D a b c ? d e f g h i j         ",
"k l m n o p q r s t u v         ",
"  # w x y z { | } ~  !          ",
"    !!#!$!%!&!'!(!)!            ",
"      )  !*!+!,!-!.!            ",
"        5 0!1!2!3!              ",
"          ` 4!5!                "};